<svg width="20" height="15" viewBox="0 0 20 15" fill="none" xmlns="http://www.w3.org/2000/svg">
<g clip-path="url(#clip0_5_76)">
<path d="M14.4269 4.73929V2.70118L15.0112 2.78063V1.25313L7.95563 0.00512695L0 1.75507V3.54113L0.7375 3.42268V8.38579H2.87688V13.0181L13.0331 14.4402L14.83 14.1888V8.24352L18.0219 8.25507V13.7411L19.505 13.5338V6.28413L20 6.31229V5.22607L14.4269 4.73929ZM13.7087 3.40679V5.19429L11.5831 5.23979V3.1569L13.7087 3.40679ZM1.8425 3.69857L6.66687 2.99152V6.97096L1.8425 7.15585V3.69857ZM3.82437 11.9637V8.38507H5.81312V12.1724L3.82437 11.9637ZM6.31875 12.2121V8.38363H7.955V8.3764H8.61938V12.4533L6.31875 12.2121ZM9.10437 12.5277V8.37785L11.7838 8.37857V12.8108L9.10437 12.5277Z" fill="#121F3E" fill-opacity="0.4"/>
</g>
<defs>
<clipPath id="clip0_5_76">
<rect width="20" height="14.4444" fill="white"/>
</clipPath>
</defs>
</svg>
